<?xml version="1.0" standalone="no"?>
<!DOCTYPE svg PUBLIC "-//W3C//DTD SVG 20010904//EN"
 "http://www.w3.org/TR/2001/REC-SVG-20010904/DTD/svg10.dtd">
<svg version="1.0" xmlns="http://www.w3.org/2000/svg"
 width="112.000000pt" height="112.000000pt" viewBox="0 0 112.000000 112.000000"
 preserveAspectRatio="xMidYMid meet">
<metadata>
Created by potrace 1.14, written by Peter Selinger 2001-2017
</metadata>
<g transform="translate(0.000000,112.000000) scale(0.100000,-0.100000)"
fill="#000000" stroke="none">
<path d="M408 1105 c-87 -24 -172 -71 -228 -126 -58 -56 -118 -158 -115 -196
1 -12 -3 -20 -8 -16 -5 3 -8 -5 -7 -18 1 -13 1 -26 0 -29 -8 -22 -7 -47 3 -59
10 -12 9 -13 -2 -7 -11 7 -12 -1 -6 -45 4 -30 10 -58 13 -64 3 -5 7 -19 9 -30
8 -47 10 -54 21 -68 7 -7 9 -17 5 -20 -3 -4 -1 -7 6 -7 9 0 11 6 6 18 -5 9 -8
25 -9 35 0 9 -3 17 -7 17 -3 0 -5 12 -3 27 1 16 -4 32 -14 40 -16 12 -16 13 1
7 9 -3 17 -1 17 5 0 6 -4 11 -10 11 -5 0 -10 5 -10 11 0 5 5 7 10 4 6 -4 11 7
11 24 2 35 1 32 17 85 9 31 9 43 -1 55 -10 14 -10 14 5 3 11 -9 18 -10 23 -2
3 5 3 10 0 10 -8 0 35 62 50 72 5 4 7 8 3 8 -12 0 74 75 118 103 62 38 132 59
210 63 125 5 244 -37 332 -120 24 -22 49 -40 54 -38 5 1 7 -2 4 -7 -5 -8 20
-55 51 -96 5 -5 10 -21 11 -35 2 -14 7 -29 12 -34 5 -5 6 -15 3 -22 -3 -8 -1
-14 3 -14 5 0 9 -31 8 -70 0 -38 2 -68 4 -65 3 2 18 -3 35 -11 28 -15 29 -15
23 1 -4 12 0 22 13 31 15 11 18 23 15 66 -4 48 -9 85 -14 98 -1 3 -3 12 -4 20
0 8 -7 14 -15 12 -11 -2 -12 0 -3 11 9 10 6 24 -12 59 -101 200 -280 314 -493
316 -49 0 -109 -5 -135 -13z m619 -377 c2 -17 0 -19 -7 -8 -5 8 -6 18 -4 22 8
12 10 10 11 -14z m-933 -6 c3 -5 -1 -9 -9 -9 -8 0 -12 4 -9 9 3 4 7 8 9 8 2 0
6 -4 9 -8z m-11 -37 c-3 -9 -8 -14 -10 -11 -3 3 -2 9 2 15 9 16 15 13 8 -4z
m-11 -52 c-6 -2 -9 -10 -6 -15 4 -7 2 -8 -5 -4 -13 9 -5 26 12 25 9 0 8 -2 -1
-6z m990 -7 c7 4 8 2 4 -5 -9 -13 -26 -5 -25 12 0 9 2 8 6 -1 2 -6 10 -9 15
-6z m4 -60 c3 -21 -19 -26 -41 -10 -10 8 -14 14 -9 14 6 0 15 -5 21 -11 7 -7
12 -6 16 5 4 10 1 16 -7 16 -8 0 -17 7 -20 15 -5 14 -4 14 16 1 12 -9 23 -22
24 -30z m-35 -33 c13 -15 12 -15 -8 -4 -24 12 -29 21 -14 21 5 0 15 -7 22 -17z"/>
<path d="M374 827 c-65 -56 -10 -203 68 -184 63 16 74 134 16 182 -37 31 -50
31 -84 2z"/>
<path d="M633 840 c-74 -30 -77 -178 -4 -197 71 -18 124 107 74 174 -23 31
-38 36 -70 23z"/>
<path d="M228 633 c-20 -24 -14 -71 13 -99 28 -30 64 -31 83 -1 41 63 -48 156
-96 100z"/>
<path d="M761 629 c-41 -44 -27 -119 22 -119 49 0 90 80 63 122 -15 24 -61 23
-85 -3z"/>
<path d="M494 575 c-34 -14 -131 -138 -143 -182 -15 -55 18 -112 65 -113 12 0
38 14 59 30 46 36 74 38 112 6 45 -38 75 -42 108 -13 44 37 37 85 -24 172 -72
103 -114 127 -177 100z"/>
<path d="M1065 520 c-3 -5 -1 -10 6 -10 9 0 8 -4 -1 -15 -10 -12 -16 -13 -39
0 -32 16 -57 5 -47 -20 3 -10 1 -24 -5 -31 -9 -12 -7 -14 12 -12 14 2 23 -2
22 -9 -1 -6 4 -13 11 -16 21 -8 13 23 -9 39 -10 8 -15 14 -11 14 5 0 3 7 -4
15 -9 10 -9 15 -1 15 6 0 11 -3 11 -8 0 -4 10 -13 21 -21 19 -11 21 -11 16 1
-3 9 1 15 9 15 17 0 18 -9 2 -25 -9 -9 -9 -12 -1 -12 12 0 19 16 27 63 5 26
-7 37 -19 17z"/>
<path d="M1030 446 c23 -29 23 -55 0 -53 -18 1 -24 10 -21 30 0 4 -3 7 -9 7
-5 0 -10 -5 -10 -11 0 -5 -4 -8 -9 -5 -5 3 -18 -10 -30 -29 -11 -19 -16 -37
-11 -40 5 -3 7 -12 4 -20 -4 -8 -10 -12 -15 -9 -5 3 -6 10 -3 16 4 7 2 8 -5 4
-9 -6 -9 -11 -1 -21 8 -9 8 -15 0 -20 -5 -3 -10 0 -10 7 -1 8 -4 7 -10 -4 -6
-9 -7 -23 -4 -32 5 -14 9 -14 26 -2 11 8 28 12 37 9 12 -4 13 -3 3 5 -11 7
-10 10 3 16 23 9 25 8 19 -9 -4 -8 -1 -15 6 -15 6 0 8 5 5 10 -3 6 2 10 12 11
17 0 17 1 0 8 -10 4 -19 11 -19 15 0 9 28 29 45 32 4 1 10 2 13 3 4 0 0 9 -7
18 -12 14 -12 16 2 11 9 -3 16 -1 16 5 0 7 3 19 7 27 3 9 -5 22 -22 35 -24 17
-25 17 -12 1z m-40 -46 c1 12 3 11 11 -3 6 -9 16 -14 22 -11 7 4 9 4 5 -1 -4
-4 -2 -15 5 -23 8 -11 8 -14 0 -9 -6 4 -14 3 -18 -3 -4 -6 -11 -8 -16 -5 -8 6
-11 -1 -8 -21 1 -7 -71 -53 -83 -54 -5 0 -8 5 -8 11 0 5 3 8 8 5 10 -6 37 15
45 36 3 10 1 20 -5 24 -8 5 -6 10 4 18 15 11 18 17 18 39 0 8 4 7 10 -3 9 -13
10 -13 10 0z"/>
<path d="M971 382 c3 -22 -2 -32 -13 -26 -10 5 -10 4 -1 -6 6 -7 9 -20 6 -29
-4 -9 -3 -13 1 -9 7 5 13 28 15 52 1 5 7 3 15 -3 9 -8 16 -8 20 -2 4 5 1 13
-6 18 -17 10 -38 13 -37 5z"/>
<path d="M100 406 c0 -2 7 -9 15 -16 13 -11 14 -10 9 4 -5 14 -24 23 -24 12z"/>
<path d="M1010 320 c0 -5 5 -10 10 -10 6 0 10 5 10 10 0 6 -4 10 -10 10 -5 0
-10 -4 -10 -10z"/>
<path d="M864 256 c5 -13 2 -17 -9 -12 -23 8 -18 0 11 -19 25 -16 27 -16 50 6
13 12 27 19 31 14 5 -4 2 -10 -4 -12 -7 -3 -13 -9 -13 -15 0 -7 5 -7 13 1 8 6
17 7 22 3 4 -4 2 3 -4 16 -14 26 -24 28 -42 6 -12 -14 -14 -14 -26 2 -7 10
-13 14 -13 8 0 -5 -5 -2 -11 6 -9 12 -10 12 -5 -4z m31 -26 c3 -5 2 -10 -4
-10 -5 0 -13 5 -16 10 -3 6 -2 10 4 10 5 0 13 -4 16 -10z"/>
<path d="M970 249 c0 -5 5 -7 10 -4 6 3 10 8 10 11 0 2 -4 4 -10 4 -5 0 -10
-5 -10 -11z"/>
<path d="M804 218 c9 -5 20 -7 25 -4 4 3 13 -6 20 -20 6 -14 15 -23 20 -20 5
4 12 1 14 -4 3 -6 4 -5 3 2 -2 7 -9 12 -16 10 -8 -2 -10 3 -6 13 3 9 2 14 -3
11 -5 -3 -11 0 -14 8 -3 7 -18 14 -33 14 -22 0 -24 -2 -10 -10z"/>
<path d="M421 194 c0 -11 3 -14 6 -6 3 7 2 16 -1 19 -3 4 -6 -2 -5 -13z"/>
<path d="M452 194 c2 -8 7 -14 12 -14 5 1 13 -4 18 -12 8 -10 9 -10 5 2 -2 8
-10 14 -17 12 -8 -2 -10 3 -7 13 4 8 2 15 -4 15 -6 0 -9 -7 -7 -16z"/>
<path d="M490 198 c0 -4 4 -8 9 -8 6 0 12 4 15 8 3 5 -1 9 -9 9 -8 0 -15 -4
-15 -9z"/>
<path d="M536 196 c5 -13 4 -17 -4 -12 -6 3 -16 -2 -21 -13 -8 -14 -7 -20 3
-24 10 -4 12 0 8 15 -3 14 -1 19 6 14 16 -9 26 14 13 27 -9 9 -10 7 -5 -7z"/>
<path d="M734 199 c-3 -6 -1 -16 5 -22 6 -6 11 -7 11 -1 0 5 5 2 11 -6 9 -13
10 -13 6 0 -2 8 -10 14 -17 12 -8 -2 -10 3 -7 13 7 17 1 20 -9 4z"/>
<path d="M770 200 c0 -5 5 -10 10 -10 6 0 10 5 10 10 0 6 -4 10 -10 10 -5 0
-10 -4 -10 -10z"/>
<path d="M901 200 c-9 -5 -4 -7 13 -7 29 0 32 2 13 10 -8 3 -20 2 -26 -3z"/>
<path d="M346 188 c3 -5 10 -6 15 -3 13 9 11 12 -6 12 -8 0 -12 -4 -9 -9z"/>
<path d="M572 192 c2 -8 8 -13 13 -12 5 1 13 -7 17 -17 7 -17 8 -17 5 0 -1 10
-6 17 -11 17 -5 -1 -13 4 -18 12 -8 11 -9 11 -6 0z"/>
<path d="M375 180 c-8 -13 5 -13 25 0 13 8 13 10 -2 10 -9 0 -20 -4 -23 -10z"/>
<path d="M659 183 c-1 -5 -1 -11 0 -15 2 -12 -17 -10 -22 2 -3 6 -4 5 -3 -2 2
-7 9 -13 17 -13 8 0 13 6 11 14 -2 8 3 11 13 8 8 -4 15 -2 15 3 0 12 -29 14
-31 3z"/>
<path d="M830 185 c0 -5 5 -17 10 -25 5 -8 10 -10 10 -5 0 6 -5 17 -10 25 -5
8 -10 11 -10 5z"/>
<path d="M151 170 c0 -8 4 -22 9 -30 12 -18 12 -2 0 25 -6 13 -9 15 -9 5z"/>
<path d="M791 168 c-1 -20 14 -24 25 -6 4 6 3 8 -4 4 -5 -3 -13 0 -15 6 -3 8
-6 6 -6 -4z"/>
<path d="M177 159 c7 -7 15 -10 18 -7 3 3 -2 9 -12 12 -14 6 -15 5 -6 -5z"/>
<path d="M550 165 c0 -2 10 -10 23 -16 20 -11 21 -11 8 4 -13 16 -31 23 -31
12z"/>
<path d="M715 160 c3 -5 8 -10 11 -10 2 0 4 5 4 10 0 6 -5 10 -11 10 -5 0 -7
-4 -4 -10z"/>
<path d="M679 158 c-6 -20 -6 -39 0 -42 4 -3 7 6 7 20 0 20 -4 32 -7 22z"/>
<path d="M475 140 c-3 -5 -1 -10 4 -10 6 0 11 5 11 10 0 6 -2 10 -4 10 -3 0
-8 -4 -11 -10z"/>
<path d="M756 141 c-3 -5 1 -14 8 -20 10 -9 16 -9 21 -1 4 6 4 14 1 17 -3 4
-6 1 -6 -6 0 -7 -5 -9 -10 -6 -6 4 -8 11 -5 16 4 5 4 9 1 9 -3 0 -7 -4 -10 -9z"/>
<path d="M595 131 c-3 -5 -2 -12 3 -15 5 -3 9 1 9 9 0 17 -3 19 -12 6z"/>
<path d="M710 130 c-12 -8 -12 -10 -1 -10 11 0 11 -3 0 -17 -13 -16 -12 -17 3
-4 10 7 16 17 13 21 -3 5 1 11 7 13 7 3 9 6 3 6 -5 0 -17 -4 -25 -9z"/>
<path d="M210 120 c0 -5 5 -10 10 -10 6 0 10 5 10 10 0 6 -4 10 -10 10 -5 0
-10 -4 -10 -10z"/>
<path d="M624 110 c0 -13 4 -16 10 -10 7 7 7 13 0 20 -6 6 -10 3 -10 -10z"/>
<path d="M817 116 c-4 -10 1 -12 14 -9 23 6 24 9 5 16 -8 3 -17 0 -19 -7z"/>
<path d="M520 95 c-7 -9 -11 -17 -9 -20 3 -2 10 5 17 15 14 24 10 26 -8 5z"/>
<path d="M454 89 c-3 -6 -2 -15 3 -20 5 -5 9 -1 9 11 0 23 -2 24 -12 9z"/>
<path d="M491 84 c0 -11 3 -14 6 -6 3 7 2 16 -1 19 -3 4 -6 -2 -5 -13z"/>
<path d="M365 79 c-3 -4 2 -6 10 -5 21 3 28 13 10 13 -9 0 -18 -4 -20 -8z"/>
<path d="M644 82 c4 -3 14 -7 22 -8 9 -1 13 0 10 4 -4 3 -14 7 -22 8 -9 1 -13
0 -10 -4z"/>
<path d="M336 62 c-3 -5 1 -9 9 -9 8 0 12 4 9 9 -3 4 -7 8 -9 8 -2 0 -6 -4 -9
-8z"/>
<path d="M440 40 c-9 -6 -10 -10 -3 -10 6 0 15 5 18 10 8 12 4 12 -15 0z"/>
<path d="M650 39 c0 -5 5 -7 10 -4 6 3 10 8 10 11 0 2 -4 4 -10 4 -5 0 -10 -5
-10 -11z"/>
<path d="M515 29 c-4 -6 -5 -12 -2 -15 2 -3 7 2 10 11 7 17 1 20 -8 4z"/>
<path d="M556 27 c3 -10 9 -15 12 -12 3 3 0 11 -7 18 -10 9 -11 8 -5 -6z"/>
</g>
</svg>
